<?xml version="1.0" standalone="no"?>
<!DOCTYPE svg PUBLIC "-//W3C//DTD SVG 20010904//EN"
 "http://www.w3.org/TR/2001/REC-SVG-20010904/DTD/svg10.dtd">
<svg version="1.0" xmlns="http://www.w3.org/2000/svg"
 width="347.000000pt" height="347.000000pt" viewBox="0 0 347.000000 347.000000"
 preserveAspectRatio="xMidYMid meet">
<metadata>
Created by potrace 1.14, written by Peter Selinger 2001-2017
</metadata>
<g transform="translate(0.000000,347.000000) scale(0.100000,-0.100000)"
fill="#000000" stroke="none">
<path d="M1521 3142 l-40 -37 1 -800 c0 -772 0 -801 19 -831 41 -67 3 -64 879
-61 l792 2 39 44 39 44 0 789 c0 864 3 823 -59 867 -29 21 -35 21 -830 21
l-800 0 -40 -38z"/>
<path d="M389 2271 l-24 -19 0 -470 c0 -448 1 -471 19 -491 19 -21 25 -21 430
-21 453 0 454 0 500 -63 20 -27 21 -44 26 -440 4 -306 8 -418 18 -434 7 -13
26 -25 45 -28 17 -3 232 -5 475 -3 l444 3 19 24 c18 22 19 45 19 485 0 451 0
463 -20 484 -21 22 -22 22 -432 22 l-411 0 -42 25 c-24 13 -47 32 -51 42 -5
10 -11 209 -14 441 l-5 424 -24 19 c-22 18 -45 19 -486 19 -441 0 -464 -1
-486 -19z"/>
<path d="M870 1164 c-25 -24 -25 -27 -25 -178 0 -150 1 -155 24 -180 24 -26
26 -26 179 -26 l154 0 29 27 29 28 0 144 c0 139 -1 145 -25 177 l-26 34 -157
-1 c-152 -1 -158 -1 -182 -25z"/>
</g>
</svg>
